# Blender v2.76 (sub 0) OBJ File: 'palm_tree.blend'
# www.blender.org
mtllib palm_tree.mtl
o Plane.007
v -0.185454 0.654213 -0.224929
v -0.023841 0.596973 0.006501
v -0.015899 0.616978 -0.047409
v -0.082168 0.660319 -0.166942
v -0.119617 0.679013 -0.133402
v -0.041973 0.634887 -0.022116
v -0.164571 0.666007 -0.107195
v -0.075552 0.621096 -0.004157
vn -0.300300 0.952900 -0.042200
vn 0.144200 0.924000 -0.354100
vn 0.506700 0.862100 0.010700
vn -0.067500 0.901700 0.427100
vn 0.142100 0.638700 0.756200
vn 0.730500 0.598100 0.329600
usemtl None
s off
f 1//1 7//1 5//1
f 1//2 5//2 4//2
f 4//3 5//3 6//3 3//3
f 5//4 7//4 8//4 6//4
f 6//5 8//5 2//5
f 3//6 6//6 2//6
o Plane.006
v 0.126988 0.773756 0.153738
v -0.038224 0.604086 0.007940
v -0.041320 0.635831 0.046797
v 0.018236 0.724600 0.109981
v 0.036018 0.736047 0.068623
v -0.030813 0.646878 0.015209
v 0.070937 0.727495 0.039210
v -0.003169 0.637927 -0.004436
vn -0.063200 0.935700 -0.347000
vn -0.432100 0.899600 0.063200
vn -0.775400 0.622100 -0.108900
vn -0.351300 0.645400 -0.678300
vn -0.513400 0.229400 -0.826900
vn -0.947900 0.205500 -0.243400
usemtl None
s off
f 9//7 15//7 13//7
f 9//8 13//8 12//8
f 12//9 13//9 14//9 11//9
f 13//10 15//10 16//10 14//10
f 14//11 16//11 10//11
f 11//12 14//12 10//12
o Plane.005
v 0.184809 0.674137 -0.207352
v -0.041852 0.601502 0.008208
v 0.011253 0.624895 0.006738
v 0.113681 0.677019 -0.078994
v 0.072747 0.694026 -0.109193
v -0.019454 0.641490 -0.013803
v 0.039598 0.680001 -0.148958
v -0.042377 0.627054 -0.043911
vn -0.072800 0.958000 -0.277200
vn 0.290300 0.946700 0.139600
vn 0.028900 0.851700 0.523200
vn -0.487300 0.872500 0.035700
vn -0.755500 0.585300 0.294600
vn -0.226400 0.564000 0.794100
usemtl None
s off
f 17//13 23//13 21//13
f 17//14 21//14 20//14
f 20//15 21//15 22//15 19//15
f 21//16 23//16 24//16 22//16
f 22//17 24//17 18//17
f 19//18 22//18 18//18
o Plane.004
v -0.323075 0.512809 0.095810
v -0.020312 0.597818 -0.002112
v -0.075341 0.604715 -0.019251
v -0.212024 0.574156 0.011444
v -0.196051 0.577504 0.062536
v -0.064427 0.611474 0.019161
v -0.175375 0.549445 0.103304
v -0.048810 0.586826 0.047249
vn -0.217500 0.749000 0.625800
vn -0.436200 0.896500 0.077700
vn -0.243200 0.969300 -0.036400
vn 0.012200 0.797100 0.603700
vn 0.450700 0.780100 0.433900
vn 0.189000 0.956500 -0.222000
usemtl None
s off
f 25//19 31//19 29//19
f 25//20 29//20 28//20
f 28//21 29//21 30//21 27//21
f 29//22 31//22 32//22 30//22
f 30//23 32//23 26//23
f 27//24 30//24 26//24
o Plane.003
v -0.215713 0.416855 -0.205518
v -0.035276 0.604352 -0.003607
v -0.034361 0.585977 -0.058662
v -0.102788 0.506660 -0.156563
v -0.147233 0.522775 -0.131229
v -0.068046 0.601483 -0.042377
v -0.180733 0.511075 -0.091009
v -0.090787 0.589173 -0.011205
vn -0.654900 0.669400 -0.350700
vn -0.189800 0.643100 -0.741900
vn -0.025000 0.772800 -0.634100
vn -0.568200 0.803600 -0.177300
vn -0.281300 0.944800 0.167900
vn 0.275300 0.913300 -0.300200
usemtl None
s off
f 33//25 39//25 37//25
f 33//26 37//26 36//26
f 36//27 37//27 38//27 35//27
f 37//28 39//28 40//28 38//28
f 38//29 40//29 34//29
f 35//30 38//30 34//30
o Plane.002
v 0.063851 0.410624 -0.226422
v -0.034725 0.610641 0.015975
v 0.014803 0.591203 -0.007235
v 0.071217 0.506710 -0.108411
v 0.028407 0.521200 -0.137293
v -0.015057 0.605413 -0.030619
v -0.022601 0.508742 -0.148240
v -0.053114 0.592674 -0.036069
vn 0.012800 0.630000 -0.776500
vn 0.572600 0.617900 -0.538800
vn 0.551000 0.757500 -0.350100
vn -0.102800 0.771700 -0.627600
vn -0.280500 0.933500 -0.223200
vn 0.389400 0.919000 0.061200
usemtl None
s off
f 41//31 47//31 45//31
f 41//32 45//32 44//32
f 44//33 45//33 46//33 43//33
f 45//34 47//34 48//34 46//34
f 46//35 48//35 42//35
f 43//36 46//36 42//36
o Plane.001
v 0.236710 0.438494 0.074747
v -0.038772 0.603190 0.000818
v -0.009289 0.586205 0.047848
v 0.107009 0.516111 0.093891
v 0.130147 0.535657 0.049626
v 0.009455 0.604369 0.016879
v 0.138843 0.526121 -0.002434
v 0.013757 0.593451 -0.021885
vn 0.676400 0.736200 -0.021900
vn 0.486400 0.676500 0.553000
vn 0.278500 0.787500 0.549800
vn 0.500300 0.857300 -0.121500
vn 0.064400 0.962400 -0.263900
vn -0.163000 0.890900 0.423900
usemtl None
s off
f 49//37 55//37 53//37
f 49//38 53//38 52//38
f 52//39 53//39 54//39 51//39
f 53//40 55//40 56//40 54//40
f 54//41 56//41 50//41
f 51//42 54//42 50//42
o Plane
v -0.032777 0.361255 0.226449
v -0.032777 0.601001 0.000611
v -0.069676 0.575954 0.037769
v -0.083748 0.474203 0.137803
v -0.032777 0.485909 0.149709
v -0.032777 0.587660 0.049675
v 0.018194 0.474203 0.137803
v 0.004122 0.575954 0.037769
vn 0.304200 0.499400 0.811200
vn -0.304200 0.499400 0.811200
vn -0.355200 0.667700 0.654200
vn 0.355200 0.667700 0.654200
vn 0.364000 0.898800 0.244400
vn -0.364000 0.898800 0.244400
usemtl None
s off
f 57//43 63//43 61//43
f 57//44 61//44 60//44
f 60//45 61//45 62//45 59//45
f 61//46 63//46 64//46 62//46
f 62//47 64//47 58//47
f 59//48 62//48 58//48
o Cylinder.001_Cylinder
v 0.019926 0.000463 -0.047766
v 0.008491 0.069821 -0.027355
v 0.055794 0.000463 -0.034712
v 0.025613 0.076459 -0.020671
v 0.074878 0.000463 -0.001656
v 0.034724 0.079991 -0.003747
v 0.068250 0.000463 0.035933
v 0.031560 0.078764 0.015499
v 0.039011 0.000463 0.060468
v 0.017602 0.073353 0.028060
v 0.000842 0.000463 0.060468
v -0.000619 0.066289 0.028060
v -0.028398 0.000463 0.035933
v -0.014577 0.060877 0.015499
v -0.035026 0.000463 -0.001656
v -0.017741 0.059651 -0.003747
v -0.015941 0.000463 -0.034712
v -0.008631 0.063183 -0.020671
v 0.003912 0.159165 -0.009561
v -0.004778 0.156671 -0.012851
v 0.008536 0.160492 -0.001228
v 0.006930 0.160031 0.008247
v -0.000154 0.157998 0.014432
v -0.009402 0.155344 0.014432
v -0.016487 0.153311 0.008247
v -0.018093 0.152850 -0.001228
v -0.013469 0.154177 -0.009561
v -0.019886 0.354719 -0.006642
v -0.026360 0.353476 -0.009041
v -0.016441 0.355380 -0.000566
v -0.017638 0.355151 0.006342
v -0.022915 0.354137 0.010851
v -0.029804 0.352815 0.010851
v -0.035082 0.351801 0.006342
v -0.036278 0.351572 -0.000566
v -0.032833 0.352233 -0.006642
v -0.023271 0.597285 -0.005121
v -0.028563 0.596770 -0.007056
v -0.020456 0.597559 -0.000222
v -0.021434 0.597464 0.005350
v -0.025747 0.597044 0.008986
v -0.031378 0.596496 0.008986
v -0.035692 0.596077 0.005350
v -0.036670 0.595981 -0.000222
v -0.033854 0.596255 -0.005121
vn 0.299700 0.300400 -0.905500
vn 0.788700 0.393000 -0.472700
vn 0.878100 0.450500 0.161000
vn 0.546400 0.455600 0.702700
vn -0.052100 0.415700 0.908000
vn -0.635100 0.350300 0.688400
vn -0.948100 0.276200 0.157400
vn 0.938100 0.299800 0.173400
vn -0.364700 0.224300 -0.903700
vn -0.856400 0.218600 -0.467700
vn 0.000000 -1.000000 0.000000
vn -0.645800 -0.053000 0.761700
vn 0.819000 0.282000 -0.499600
vn -0.387300 0.092700 -0.917300
vn -0.879300 0.010500 -0.476200
vn -0.986400 -0.007800 0.164300
vn -0.673400 0.045200 0.737900
vn -0.052000 0.147100 0.987800
vn 0.594000 0.248100 0.765300
vn 0.290300 0.201200 -0.935500
vn -0.001100 0.007700 1.000000
vn 0.977100 0.124700 0.172400
vn -0.981000 -0.090300 0.171600
vn 0.639200 0.088000 0.764000
vn 0.338800 0.055300 -0.939200
vn -0.865300 -0.077400 -0.495300
vn -0.004400 0.017700 0.999800
vn 0.860300 0.112000 -0.497300
vn -0.346900 -0.020000 -0.937700
vn -0.096800 0.995300 -0.000000
vn 0.868000 0.015200 -0.496400
vn -0.346300 0.004500 -0.938100
vn -0.647500 0.001600 0.762100
vn 0.985000 0.016100 0.172000
vn -0.985200 -0.001800 0.171700
vn 0.646100 0.013300 0.763100
vn 0.344300 0.010700 -0.938800
vn -0.868600 -0.000600 -0.495500
usemtl None
s off
f 65//49 66//49 68//49 67//49
f 67//50 68//50 70//50 69//50
f 69//51 70//51 72//51 71//51
f 71//52 72//52 74//52 73//52
f 73//53 74//53 76//53 75//53
f 75//54 76//54 78//54 77//54
f 77//55 78//55 80//55 79//55
f 72//56 70//56 85//56 86//56
f 81//57 82//57 66//57 65//57
f 79//58 80//58 82//58 81//58
f 65//59 67//59 69//59 71//59 73//59 75//59 77//59 79//59 81//59
f 89//60 88//60 97//60 98//60
f 70//61 68//61 83//61 85//61
f 66//62 82//62 91//62 84//62
f 82//63 80//63 90//63 91//63
f 80//64 78//64 89//64 90//64
f 78//65 76//65 88//65 89//65
f 76//66 74//66 87//66 88//66
f 74//67 72//67 86//67 87//67
f 68//68 66//68 84//68 83//68
f 97//69 96//69 105//69 106//69
f 86//70 85//70 94//70 95//70
f 90//71 89//71 98//71 99//71
f 87//72 86//72 95//72 96//72
f 83//73 84//73 93//73 92//73
f 91//74 90//74 99//74 100//74
f 88//75 87//75 96//75 97//75
f 85//76 83//76 92//76 94//76
f 84//77 91//77 100//77 93//77
f 101//78 102//78 109//78 108//78 107//78 106//78 105//78 104//78 103//78
f 94//79 92//79 101//79 103//79
f 93//80 100//80 109//80 102//80
f 98//81 97//81 106//81 107//81
f 95//82 94//82 103//82 104//82
f 99//83 98//83 107//83 108//83
f 96//84 95//84 104//84 105//84
f 92//85 93//85 102//85 101//85
f 100//86 99//86 108//86 109//86
